<svg width="46" height="36" viewBox="0 0 46 36" fill="none" xmlns="http://www.w3.org/2000/svg">
<path id="&#239;&#130;&#134;" d="M27.8125 4.17188C30.9896 6.61979 32.5781 9.5625 32.5781 13C32.5781 16.4375 30.9896 19.3802 27.8125 21.8281C24.6354 24.276 20.8073 25.5 16.3281 25.5C13.2031 25.5 10.3125 24.849 7.65625 23.5469C5.41667 24.849 3.09896 25.5 0.703125 25.5C0.598958 25.5 0.494792 25.474 0.390625 25.4219C0.286458 25.3177 0.208333 25.2135 0.15625 25.1094C0.0520833 24.849 0.078125 24.6146 0.234375 24.4062C1.32812 23.3646 2.26562 21.9583 3.04688 20.1875C1.06771 18.0521 0.078125 15.6562 0.078125 13C0.078125 9.5625 1.66667 6.61979 4.84375 4.17188C8.02083 1.72396 11.849 0.5 16.3281 0.5C20.8073 0.5 24.6354 1.72396 27.8125 4.17188ZM42.1094 30.1875C42.8906 31.9583 43.8281 33.3646 44.9219 34.4062C45.0781 34.6146 45.1042 34.849 45 35.1094C44.8958 35.3698 44.7135 35.5 44.4531 35.5C42.0573 35.5 39.7396 34.849 37.5 33.5469C34.8438 34.849 31.9531 35.5 28.8281 35.5C25.4948 35.5 22.474 34.7969 19.7656 33.3906C17.0573 31.9844 15.0781 30.1354 13.8281 27.8438C14.7656 27.9479 15.599 28 16.3281 28C21.4844 28 25.8854 26.5417 29.5312 23.625C33.2292 20.6562 35.0781 17.1146 35.0781 13C35.0781 12.4271 35.0521 11.9062 35 11.4375C37.9688 12.375 40.3906 13.9115 42.2656 16.0469C44.1406 18.1302 45.0781 20.4479 45.0781 23C45.0781 25.6562 44.0885 28.0521 42.1094 30.1875Z" fill="#F3CF19"/>
</svg>
