<svg width="50" height="40" viewBox="0 0 50 40" fill="none" xmlns="http://www.w3.org/2000/svg">
<path id="&#239;&#146;&#139;" d="M48.75 27.5C49.1146 27.5 49.401 27.6302 49.6094 27.8906C49.8698 28.099 50 28.3854 50 28.75V31.25C50 31.6146 49.8698 31.9271 49.6094 32.1875C49.401 32.3958 49.1146 32.5 48.75 32.5H45C45 34.5833 44.2708 36.3542 42.8125 37.8125C41.3542 39.2708 39.5833 40 37.5 40C35.4167 40 33.6458 39.2708 32.1875 37.8125C30.7292 36.3542 30 34.5833 30 32.5H20C20 34.5833 19.2708 36.3542 17.8125 37.8125C16.3542 39.2708 14.5833 40 12.5 40C10.4167 40 8.64583 39.2708 7.1875 37.8125C5.72917 36.3542 5 34.5833 5 32.5V22.5H16.875C17.2917 22.5 17.5 22.2917 17.5 21.875V20.625C17.5 20.2083 17.2917 20 16.875 20H0.625C0.208333 20 0 19.7917 0 19.375V18.125C0 17.7083 0.208333 17.5 0.625 17.5H19.375C19.7917 17.5 20 17.2917 20 16.875V15.625C20 15.2083 19.7917 15 19.375 15H3.125C2.70833 15 2.5 14.7917 2.5 14.375V13.125C2.5 12.7083 2.70833 12.5 3.125 12.5H21.875C22.2917 12.5 22.5 12.2917 22.5 11.875V10.625C22.5 10.2083 22.2917 10 21.875 10H0.625C0.208333 10 0 9.79167 0 9.375V8.125C0 7.70833 0.208333 7.5 0.625 7.5H5V3.75C5 2.70833 5.36458 1.82292 6.09375 1.09375C6.82292 0.364583 7.70833 0 8.75 0H28.75C29.7917 0 30.6771 0.364583 31.4062 1.09375C32.1354 1.82292 32.5 2.70833 32.5 3.75V7.5H35.9375C36.9792 7.5 37.8646 7.86458 38.5938 8.59375L46.4062 16.4062C47.1354 17.1354 47.5 18.0208 47.5 19.0625V27.5H48.75ZM9.84375 35.1562C10.5729 35.8854 11.4583 36.25 12.5 36.25C13.5417 36.25 14.4271 35.8854 15.1562 35.1562C15.8854 34.4271 16.25 33.5417 16.25 32.5C16.25 31.4583 15.8854 30.5729 15.1562 29.8438C14.4271 29.1146 13.5417 28.75 12.5 28.75C11.4583 28.75 10.5729 29.1146 9.84375 29.8438C9.11458 30.5729 8.75 31.4583 8.75 32.5C8.75 33.5417 9.11458 34.4271 9.84375 35.1562ZM34.8438 35.1562C35.5729 35.8854 36.4583 36.25 37.5 36.25C38.5417 36.25 39.4271 35.8854 40.1562 35.1562C40.8854 34.4271 41.25 33.5417 41.25 32.5C41.25 31.4583 40.8854 30.5729 40.1562 29.8438C39.4271 29.1146 38.5417 28.75 37.5 28.75C36.4583 28.75 35.5729 29.1146 34.8438 29.8438C34.1146 30.5729 33.75 31.4583 33.75 32.5C33.75 33.5417 34.1146 34.4271 34.8438 35.1562ZM43.75 20V19.0625L35.9375 11.25H32.5V20H43.75Z" fill="#F3CF19"/>
</svg>
