<svg width="50" height="50" viewBox="0 0 50 50" fill="none" xmlns="http://www.w3.org/2000/svg">
<g id="logo">
<rect id="Rectangle 4" width="50" height="50" fill="#F3CF19"/>
<path id="FOOD." d="M12.1191 27.2905H7.64404V32H6.23779V21.3359H12.8442V22.4932H7.64404V26.1406H12.1191V27.2905ZM22.7319 27.0122C22.7319 28.0571 22.5562 28.9702 22.2046 29.7515C21.853 30.5278 21.355 31.1211 20.7104 31.5312C20.0659 31.9414 19.314 32.1465 18.4546 32.1465C17.6147 32.1465 16.8701 31.9414 16.2207 31.5312C15.5713 31.1162 15.0659 30.5278 14.7046 29.7661C14.3481 28.9995 14.165 28.1133 14.1553 27.1074V26.3384C14.1553 25.313 14.3335 24.4072 14.6899 23.6211C15.0464 22.835 15.5493 22.2344 16.1987 21.8193C16.853 21.3994 17.6001 21.1895 18.4399 21.1895C19.2944 21.1895 20.0464 21.397 20.6958 21.812C21.3501 22.2222 21.853 22.8203 22.2046 23.6064C22.5562 24.3877 22.7319 25.2983 22.7319 26.3384V27.0122ZM21.333 26.3237C21.333 25.0591 21.0791 24.0898 20.5713 23.416C20.0635 22.7373 19.353 22.3979 18.4399 22.3979C17.5513 22.3979 16.8506 22.7373 16.3379 23.416C15.8301 24.0898 15.5688 25.0273 15.5542 26.2285V27.0122C15.5542 28.2378 15.8105 29.2021 16.3232 29.9053C16.8408 30.6035 17.5513 30.9526 18.4546 30.9526C19.3628 30.9526 20.0659 30.623 20.564 29.9639C21.062 29.2998 21.3184 28.3501 21.333 27.1147V26.3237ZM28.02 32.1465C26.9116 32.1221 26.0229 31.7559 25.354 31.0479C24.6851 30.3398 24.3066 29.3926 24.2188 28.2061C24.1699 27.6201 24.2163 26.9316 24.3579 26.1406C24.4995 25.3447 24.751 24.6123 25.1123 23.9434C25.4736 23.2744 25.9253 22.7178 26.4673 22.2734C27.3755 21.5264 28.4204 21.165 29.6021 21.1895C30.3296 21.2041 30.9644 21.3726 31.5063 21.6948C32.0532 22.0122 32.4902 22.4712 32.8174 23.0718C33.1445 23.6724 33.335 24.356 33.3887 25.1226C33.4277 25.6646 33.3936 26.2822 33.2861 26.9756C33.1836 27.6641 32.9907 28.3232 32.7075 28.9531C32.4292 29.5781 32.0679 30.1299 31.6235 30.6084C31.1792 31.0869 30.6543 31.4678 30.0488 31.751C29.4482 32.0293 28.772 32.1611 28.02 32.1465ZM30.8765 25.1006C30.8276 23.8799 30.354 23.2451 29.4556 23.1963C28.7622 23.1621 28.1885 23.438 27.7344 24.0239C27.2803 24.605 26.98 25.4644 26.8335 26.6021C26.7407 27.3052 26.7065 27.8496 26.731 28.2354C26.7798 29.4756 27.2583 30.1128 28.1665 30.147C28.7622 30.1763 29.2749 29.9639 29.7046 29.5098C30.1343 29.0508 30.4443 28.3867 30.6348 27.5176C30.8252 26.6436 30.9058 25.8379 30.8765 25.1006ZM33.7402 32L35.5859 21.3359L38.7207 21.3433C39.6436 21.3433 40.4492 21.5874 41.1377 22.0757C41.8262 22.5591 42.3145 23.2207 42.6025 24.0605C42.8516 24.7979 42.9272 25.5938 42.8296 26.4482L42.7783 26.895C42.6465 27.8521 42.3291 28.7188 41.8262 29.4951C41.3232 30.2715 40.6763 30.8818 39.8853 31.3262C39.0942 31.7656 38.2397 31.9902 37.3218 32H33.7402ZM37.7539 23.3208L36.5894 30.0225L37.3218 30.0298C38.1812 30.0298 38.8696 29.6978 39.3872 29.0337C39.9097 28.3696 40.2197 27.354 40.3174 25.9868L40.332 25.7451C40.3662 24.9639 40.2441 24.3706 39.9658 23.9653C39.6875 23.5601 39.27 23.3477 38.7134 23.3281L37.7539 23.3208ZM42.5879 30.8867C42.5781 30.5156 42.7051 30.208 42.9688 29.9639C43.2324 29.7197 43.5474 29.5977 43.9136 29.5977C44.2749 29.5977 44.5825 29.71 44.8364 29.9346C45.0903 30.1543 45.2222 30.4424 45.2319 30.7988C45.2417 31.165 45.1172 31.4727 44.8584 31.7217C44.5996 31.9658 44.2822 32.0879 43.9062 32.0879C43.5352 32.0879 43.2251 31.9756 42.9761 31.751C42.7271 31.5264 42.5977 31.2383 42.5879 30.8867Z" fill="white"/>
</g>
</svg>
